<svg xmlns="http://www.w3.org/2000/svg" xmlns:xlink="http://www.w3.org/1999/xlink" fill="none" version="1.1" width="80" height="18" viewBox="0 0 80 18"><g><g><rect x="0" y="0" width="80" height="18" rx="0" fill="#C5C5C5" fill-opacity="0" style="mix-blend-mode:passthrough"/></g><g><g><path d="M2.480232931380272,4.699999790191651L0.2343529313802719,4.699999790191651L0.2343529313802719,2.8999997901916506L6.874352931380272,2.8999997901916506L6.874352931380272,4.699999790191651L4.628472931380272,4.699999790191651L4.628472931380272,15.49999979019165L2.480232931380272,15.49999979019165L2.480232931380272,4.699999790191651ZM7.909412931380272,2.8999997901916506L11.092752931380272,2.8999997901916506Q12.752752931380272,2.8999997901916506,13.514352931380271,3.6109997901916504Q14.275952931380273,4.321999790191651,14.275952931380273,5.79799979019165L14.275952931380273,6.571999790191651Q14.275952931380273,8.53399979019165,12.869852931380272,9.05599979019165L12.869852931380272,9.09199979019165Q13.651052931380272,9.307999790191651,13.973252931380271,9.97399979019165Q14.295552931380271,10.63999979019165,14.295552931380271,11.75599979019165L14.295552931380271,13.96999979019165Q14.295552931380271,14.50999979019165,14.334552931380271,14.84299979019165Q14.373652931380272,15.17599979019165,14.529852931380272,15.49999979019165L12.342552931380272,15.49999979019165Q12.225452931380271,15.19399979019165,12.186352931380272,14.923999790191651Q12.147252931380272,14.65399979019165,12.147252931380272,13.95199979019165L12.147252931380272,11.647999790191651Q12.147252931380272,10.78399979019165,11.844552931380273,10.441999790191652Q11.541852931380271,10.09999979019165,10.799752931380272,10.09999979019165L10.057642931380272,10.09999979019165L10.057642931380272,15.49999979019165L7.909412931380272,15.49999979019165L7.909412931380272,2.8999997901916506ZM10.838852931380272,8.29999979019165Q11.483252931380273,8.29999979019165,11.805552931380271,7.99399979019165Q12.127752931380272,7.68799979019165,12.127752931380272,6.967999790191651L12.127752931380272,5.99599979019165Q12.127752931380272,5.311999790191651,11.864152931380271,5.00599979019165Q11.600452931380271,4.699999790191651,11.034152931380271,4.699999790191651L10.057642931380272,4.699999790191651L10.057642931380272,8.29999979019165L10.838852931380272,8.29999979019165ZM17.439752931380273,2.8999997901916506L20.349652931380273,2.8999997901916506L22.57595293138027,15.49999979019165L20.427752931380272,15.49999979019165L20.037152931380273,12.99799979019165L20.037152931380273,13.03399979019165L17.59595293138027,13.03399979019165L17.20545293138027,15.49999979019165L15.213452931380273,15.49999979019165L17.439752931380273,2.8999997901916506ZM19.78325293138027,11.32399979019165L18.82635293138027,5.09599979019165L18.787252931380273,5.09599979019165L17.849852931380273,11.32399979019165L19.78325293138027,11.32399979019165ZM22.497852931380272,2.8999997901916506L24.665652931380272,2.8999997901916506L26.07175293138027,12.673999790191651L26.110852931380272,12.673999790191651L27.51695293138027,2.8999997901916506L29.48945293138027,2.8999997901916506L27.41925293138027,15.49999979019165L24.567952931380272,15.49999979019165L22.497852931380272,2.8999997901916506ZM30.52445293138027,2.8999997901916506L36.38325293138027,2.8999997901916506L36.38325293138027,4.699999790191651L32.67275293138027,4.699999790191651L32.67275293138027,8.029999790191649L35.621652931380275,8.029999790191649L35.621652931380275,9.82999979019165L32.67275293138027,9.82999979019165L32.67275293138027,13.69999979019165L36.38325293138027,13.69999979019165L36.38325293138027,15.49999979019165L30.52445293138027,15.49999979019165L30.52445293138027,2.8999997901916506ZM37.61365293138027,2.8999997901916506L39.761852931380275,2.8999997901916506L39.761852931380275,13.69999979019165L43.29665293138027,13.69999979019165L43.29665293138027,15.49999979019165L37.61365293138027,15.49999979019165L37.61365293138027,2.8999997901916506ZM44.33175293138027,2.8999997901916506L46.479952931380275,2.8999997901916506L46.479952931380275,13.69999979019165L50.014852931380275,13.69999979019165L50.014852931380275,15.49999979019165L44.33175293138027,15.49999979019165L44.33175293138027,2.8999997901916506ZM64.99385293138027,2.8999997901916506L67.68895293138027,2.8999997901916506L69.77855293138028,10.441999790191652L69.81765293138027,10.441999790191652L69.81765293138027,2.8999997901916506L71.73155293138028,2.8999997901916506L71.73155293138028,15.49999979019165L69.52475293138028,15.49999979019165L66.94685293138028,6.30199979019165L66.90775293138027,6.30199979019165L66.90775293138027,15.49999979019165L64.99385293138027,15.49999979019165L64.99385293138027,2.8999997901916506ZM76.37955293138027,15.679999790191651Q74.81715293138028,15.679999790191651,73.99695293138028,14.86099979019165Q73.17665293138027,14.04199979019165,73.17665293138027,12.51199979019165L73.17665293138027,5.8879997901916505Q73.17665293138027,4.35799979019165,73.99695293138028,3.5389997901916503Q74.81715293138028,2.7199997901916504,76.37955293138027,2.7199997901916504Q77.94185293138027,2.7199997901916504,78.76215293138027,3.5389997901916503Q79.58235293138027,4.35799979019165,79.58235293138027,5.8879997901916505L79.58235293138027,6.967999790191651L77.55125293138028,6.967999790191651L77.55125293138028,5.76199979019165Q77.55125293138028,4.51999979019165,76.43815293138027,4.51999979019165Q75.32495293138027,4.51999979019165,75.32495293138027,5.76199979019165L75.32495293138027,12.65599979019165Q75.32495293138027,13.87999979019165,76.43815293138027,13.87999979019165Q77.55125293138028,13.87999979019165,77.55125293138028,12.65599979019165L77.55125293138028,10.18999979019165L76.47715293138027,10.18999979019165L76.47715293138027,8.38999979019165L79.58235293138027,8.38999979019165L79.58235293138027,12.51199979019165Q79.58235293138027,14.04199979019165,78.76215293138027,14.86099979019165Q77.94185293138027,15.679999790191651,76.37955293138027,15.679999790191651Z" fill="#000000" fill-opacity="1" style="mix-blend-mode:passthrough"/></g></g><g><g><path d="M57.81731207763672,6.99452L62.38564207763672,9.9L62.38564207763672,11.05L57.81731207763672,9.59755L57.81731207763672,12.67955L59.53041207763672,13.6375L59.53041207763672,14.5L56.96078207763672,13.925L54.391122077636716,14.5L54.391122077636716,13.6375L56.10422207763672,12.679L56.10422207763672,9.597000000000001L51.53594207763672,11.05L51.53594207763672,9.9L56.10422207763672,6.99452L56.10422207763672,3.8625C56.10422207763672,3.386154,56.487712077636715,3,56.96078207763672,3C57.43382207763672,3,57.81731207763672,3.386155,57.81731207763672,3.8625L57.81731207763672,6.99452Z" fill="#000000" fill-opacity="1" style="mix-blend-mode:passthrough"/></g></g></g></svg>